<svg xmlns="http://www.w3.org/2000/svg" id="Laag_1" viewBox="0 0 74.09 56.69"><defs><style>.cls-1{fill:none;stroke:#fff;stroke-miterlimit:10;stroke-width:2.22px;}</style></defs><path class="cls-1" d="M69.88,22.12c-5.62,3.18-10.49,4.94-16.16,7.28-.6.25-1.07.74-1.32,1.34l-8.61,20.24c-.89,1.43-2.3,2.05-3.81,2.45-1.62.43-3.21-.76-3.21-2.43v-12.58c0-1.7-1.64-2.91-3.27-2.41-4.53,1.38-9.04,3.61-13.42,4.66-3.88.93-7.38.39-10.28-2.54-2.78-2.8-4.7-5.79-5.84-7.94-.15-.29-.28-.53-.36-.69.61-.49,1.62-1.18,3.02-1.62,1.1-.35,2.02-.63,3.05-.43,1.67.32,3.78,2.8,5.35,4.05.66.53,1.55.67,2.35.4,14.19-4.74,27.29-8.49,42.56-14.23,2.32-.87,3.17-1.09,4.08-1.16,1.1-.08,3.26-.42,4.94,1.08,1.49,1.33,2.51,3.64.95,4.53Z"></path><path class="cls-1" d="M34.43,23.18l-3.25,1.05c-2.5-3.08-5.36-6.14-7.56-9.4-.37-.55-1.11-1.24-.93-1.94.28-1.14,5.32-2.9,6.47-2.88,3.96.07,14.07,6.81,17.47,8.99l-3.67,1.43-8.52,2.76Z"></path></svg>