<svg xmlns="http://www.w3.org/2000/svg" id="Laag_1" viewBox="0 0 56.69 56.69"><defs><style>.cls-1{fill:#fff;}</style></defs><path class="cls-1" d="M50.15,50.64c-.63,0-1.13-.65-1.13-1.45v-1.84c0-7.51-4.62-13.62-10.3-13.62h-14.27c-5.68,0-10.3,6.11-10.3,13.62v1.84c0,.8-.51,1.45-1.13,1.45s-1.13-.65-1.13-1.45v-1.84c0-9.11,5.64-16.51,12.57-16.51h14.27c6.93,0,12.57,7.41,12.57,16.51v1.84c0,.8-.51,1.45-1.13,1.45"></path><path class="cls-1" d="M31.19,9.34c-5.06,0-9.17,4.11-9.17,9.17s4.11,9.17,9.17,9.17,9.17-4.11,9.17-9.17-4.11-9.17-9.17-9.17M31.19,30.14c-6.41,0-11.63-5.22-11.63-11.63s5.22-11.63,11.63-11.63,11.63,5.22,11.63,11.63-5.22,11.63-11.63,11.63"></path></svg>