<svg xmlns="http://www.w3.org/2000/svg" xmlns:xlink="http://www.w3.org/1999/xlink" id="Laag_1" x="0px" y="0px" viewBox="0 0 1030.9 1133.9" style="enable-background:new 0 0 1030.9 1133.9;" xml:space="preserve"><style type="text/css">	.st0{fill:#C73F1C;}	.st1{fill:#AE9A64;}</style><polygon class="st0" points="350.2,182.9 240.3,182.9 240.3,185.1 240.3,197.7 240.3,307.7 255.1,307.7 255.1,197.7 350.2,197.7 "></polygon><polygon class="st0" points="672.1,705.8 672.1,792.4 574.8,792.4 574.8,807.2 672.1,807.2 672.1,807.3 686.9,807.3 686.9,705.8 "></polygon><polygon class="st0" points="528.6,792.4 501.1,792.4 501.1,705.8 486.3,705.8 486.3,792.4 486.3,807.2 486.3,807.3 501.1,807.3  501.1,807.2 528.6,807.2 "></polygon><polygon class="st0" points="255.1,573.6 255.1,500.9 240.3,500.9 240.3,588.4 248.8,588.4 255.1,588.4 350.2,588.4 350.2,573.6 "></polygon><polygon class="st0" points="396.1,182.9 396.1,197.7 599.4,197.7 599.4,261.2 614.2,261.2 614.2,197.7 614.2,185.1 614.2,182.9 "></polygon><g>	<g>		<rect x="246.2" y="303.1" class="st0" width="3" height="1.5"></rect>	</g>	<g>		<path class="st0" d="M249.2,501.4h-3v-3.1h3V501.4z M249.2,495.3h-3v-3.1h3V495.3z M249.2,489.1h-3V486h3V489.1z M249.2,483h-3   v-3.1h3V483z M249.2,476.8h-3v-3.1h3V476.8z M249.2,470.7h-3v-3.1h3V470.7z M249.2,464.5h-3v-3.1h3V464.5z M249.2,458.4h-3v-3.1h3   V458.4z M249.2,452.2h-3v-3.1h3V452.2z M249.2,446.1h-3V443h3V446.1z M249.2,439.9h-3v-3.1h3V439.9z M249.2,433.8h-3v-3.1h3V433.8   z M249.2,427.6h-3v-3.1h3V427.6z M249.2,421.5h-3v-3.1h3V421.5z M249.2,415.3h-3v-3.1h3V415.3z M249.2,409.2h-3v-3.1h3V409.2z    M249.2,403h-3v-3.1h3V403z M249.2,396.9h-3v-3.1h3V396.9z M249.2,390.7h-3v-3.1h3V390.7z M249.2,384.5h-3v-3.1h3V384.5z    M249.2,378.4h-3v-3.1h3V378.4z M249.2,372.2h-3v-3.1h3V372.2z M249.2,366.1h-3V363h3V366.1z M249.2,359.9h-3v-3.1h3V359.9z    M249.2,353.8h-3v-3.1h3V353.8z M249.2,347.6h-3v-3.1h3V347.6z M249.2,341.5h-3v-3.1h3V341.5z M249.2,335.3h-3v-3.1h3V335.3z    M249.2,329.2h-3v-3.1h3V329.2z M249.2,323h-3V320h3V323z M249.2,316.9h-3v-3.1h3V316.9z M249.2,310.7h-3v-3.1h3V310.7z"></path>	</g>	<g>		<rect x="246.2" y="504.5" class="st0" width="3" height="1.5"></rect>	</g></g><g>	<path class="st1" d="M390.9,388.3c-0.6,0-1.2-0.2-1.7-0.7c-0.5-0.5-0.8-1.1-0.8-1.8c0-0.3,0.1-0.7,0.2-1.1l28.4-76  c0.2-0.8,0.7-1.5,1.4-2.1c0.7-0.6,1.6-0.9,2.8-0.9h12.8c1.2,0,2.1,0.3,2.7,0.9c0.6,0.6,1.1,1.3,1.4,2.1l28.4,76  c0.1,0.4,0.1,0.7,0.1,1.1c0,0.7-0.2,1.3-0.7,1.8c-0.5,0.5-1,0.7-1.6,0.7h-10.3c-1.1,0-1.9-0.3-2.4-0.8c-0.5-0.5-0.8-1-1-1.5  l-5.5-14.4h-35l-5.5,14.4c-0.2,0.5-0.5,1-1,1.5c-0.5,0.5-1.3,0.8-2.4,0.8H390.9z M414.3,358.2H441l-13.4-36.4L414.3,358.2z"></path>	<path class="st1" d="M470.7,388.3c-0.8,0-1.5-0.3-2-0.8c-0.6-0.5-0.8-1.2-0.8-2v-76.7c0-0.9,0.3-1.6,0.8-2.1c0.5-0.5,1.2-0.8,2-0.8  h51.1c0.9,0,1.6,0.3,2.1,0.8c0.5,0.6,0.8,1.3,0.8,2.1v8.2c0,0.9-0.3,1.6-0.8,2.1c-0.6,0.5-1.3,0.8-2.1,0.8H484v22.4h35.5  c0.9,0,1.6,0.3,2.1,0.8c0.5,0.6,0.8,1.3,0.8,2.1v8.2c0,0.8-0.3,1.5-0.8,2c-0.6,0.6-1.3,0.8-2.1,0.8H484v29.2c0,0.8-0.3,1.5-0.8,2  c-0.6,0.6-1.3,0.8-2.1,0.8H470.7z"></path>	<path class="st1" d="M531.8,388.3c-0.8,0-1.5-0.3-2-0.8c-0.6-0.5-0.8-1.2-0.8-2v-76.7c0-0.9,0.3-1.6,0.8-2.1c0.5-0.5,1.2-0.8,2-0.8  h30.5c9.5,0,17,2.2,22.5,6.6c5.5,4.4,8.2,10.8,8.2,19.2c0,5.8-1.4,10.6-4.3,14.5c-2.9,3.9-6.7,6.6-11.5,8.4l17.2,30.1  c0.2,0.5,0.4,0.9,0.4,1.3c0,0.7-0.3,1.3-0.8,1.8c-0.5,0.5-1.1,0.7-1.7,0.7h-10.7c-1.3,0-2.4-0.4-3.1-1.1s-1.3-1.4-1.6-2.1  l-15.2-27.9h-16.4v28.3c0,0.8-0.3,1.5-0.8,2c-0.5,0.6-1.2,0.8-2.1,0.8H531.8z M545.3,343.9h16.6c4.8,0,8.4-1.1,10.7-3.2  c2.4-2.2,3.5-5.2,3.5-9.1c0-3.9-1.2-7-3.5-9.3c-2.3-2.2-5.9-3.4-10.8-3.4h-16.6V343.9z"></path>	<path class="st1" d="M601.3,388.3c-0.8,0-1.5-0.3-2-0.8c-0.6-0.5-0.8-1.2-0.8-2v-76.8c0-0.8,0.3-1.5,0.8-2c0.5-0.5,1.2-0.8,2-0.8  h11.1c0.9,0,1.6,0.3,2.1,0.8c0.5,0.6,0.8,1.2,0.8,2v76.8c0,0.8-0.3,1.5-0.8,2c-0.5,0.6-1.2,0.8-2.1,0.8H601.3z"></path>	<path class="st1" d="M655.7,389.5c-7.3,0-13.5-1.3-18.6-3.8c-5.1-2.6-8.9-6.2-11.6-11c-2.7-4.8-4.2-10.5-4.5-17.1  c-0.1-3.2-0.1-6.7-0.1-10.4c0-3.7,0-7.2,0.1-10.6c0.3-6.6,1.8-12.3,4.5-17.1c2.7-4.8,6.6-8.5,11.7-11c5.1-2.6,11.2-3.8,18.4-3.8  c5.3,0,10.1,0.7,14.4,2.1s7.9,3.4,10.8,5.8c3,2.5,5.3,5.4,7,8.7s2.5,6.9,2.6,10.7c0.1,0.7-0.1,1.3-0.6,1.8  c-0.5,0.5-1.1,0.7-1.8,0.7h-11.2c-0.9,0-1.6-0.2-2.1-0.6c-0.6-0.4-0.9-1.2-1.2-2.2c-1.3-5.2-3.4-8.7-6.5-10.6  c-3.1-1.9-6.9-2.8-11.4-2.8c-5.3,0-9.5,1.5-12.6,4.4c-3.1,2.9-4.8,7.8-5.1,14.6c-0.2,6.4-0.2,13,0,19.8c0.2,6.8,1.9,11.6,5.1,14.6  c3.1,2.9,7.3,4.4,12.6,4.4c4.6,0,8.4-1,11.5-2.9c3.1-1.9,5.2-5.4,6.4-10.5c0.2-1.1,0.6-1.8,1.2-2.2c0.5-0.4,1.3-0.6,2.1-0.6H688  c0.7,0,1.3,0.2,1.8,0.7c0.5,0.5,0.7,1.1,0.6,1.8c-0.1,3.9-0.9,7.4-2.6,10.7s-4,6.2-7,8.7c-3,2.5-6.6,4.4-10.8,5.8  S661.1,389.5,655.7,389.5z"></path>	<path class="st1" d="M688.7,388.3c-0.6,0-1.2-0.2-1.7-0.7c-0.5-0.5-0.8-1.1-0.8-1.8c0-0.3,0.1-0.7,0.2-1.1l28.4-76  c0.2-0.8,0.7-1.5,1.4-2.1c0.7-0.6,1.6-0.9,2.8-0.9h12.8c1.2,0,2.1,0.3,2.7,0.9c0.6,0.6,1.1,1.3,1.4,2.1l28.4,76  c0.1,0.4,0.1,0.7,0.1,1.1c0,0.7-0.2,1.3-0.7,1.8c-0.5,0.5-1,0.7-1.7,0.7h-10.3c-1.1,0-1.9-0.3-2.4-0.8c-0.5-0.5-0.8-1-1-1.5  l-5.5-14.4h-35l-5.5,14.4c-0.2,0.5-0.5,1-1,1.5c-0.5,0.5-1.3,0.8-2.4,0.8H688.7z M712.1,358.2h26.8l-13.4-36.4L712.1,358.2z"></path></g><g>	<path class="st1" d="M389.6,683.3c-0.2,0-0.5-0.1-0.6-0.3c-0.2-0.2-0.3-0.4-0.3-0.6v-17.6c0-0.3,0.1-0.5,0.3-0.7  c0.2-0.2,0.4-0.3,0.6-0.3h3c0.2,0,0.5,0.1,0.7,0.3c0.2,0.2,0.3,0.4,0.3,0.7v1.5c0.6-0.8,1.3-1.4,2.2-1.8c0.9-0.4,2-0.6,3.2-0.6h1.5  c0.3,0,0.5,0.1,0.7,0.3c0.2,0.2,0.2,0.4,0.2,0.6v2.7c0,0.2-0.1,0.5-0.2,0.6c-0.2,0.2-0.4,0.3-0.7,0.3h-2.9c-1.2,0-2.1,0.3-2.8,1  c-0.7,0.7-1,1.6-1,2.8v10.3c0,0.2-0.1,0.5-0.3,0.6s-0.4,0.3-0.7,0.3H389.6z"></path>	<path class="st1" d="M412,683.7c-2.8,0-4.9-0.8-6.6-2.4c-1.6-1.6-2.5-3.9-2.6-6.8c0-0.2,0-0.6,0-1s0-0.7,0-0.9  c0.1-1.9,0.5-3.5,1.3-4.9c0.8-1.4,1.8-2.4,3.2-3.1c1.3-0.7,2.9-1.1,4.7-1.1c2,0,3.7,0.4,5.1,1.2c1.4,0.8,2.4,2,3.1,3.5  c0.7,1.5,1,3.2,1,5.1v0.8c0,0.2-0.1,0.5-0.3,0.6c-0.2,0.2-0.4,0.3-0.7,0.3h-12.4c0,0.1,0,0.2,0,0.3c0,0.9,0.2,1.7,0.5,2.4  c0.3,0.7,0.8,1.3,1.4,1.8c0.6,0.4,1.3,0.7,2.2,0.7c0.7,0,1.3-0.1,1.8-0.3c0.5-0.2,0.9-0.5,1.2-0.7c0.3-0.3,0.5-0.5,0.6-0.7  c0.2-0.3,0.4-0.5,0.5-0.5c0.1-0.1,0.3-0.1,0.6-0.1h3.2c0.2,0,0.5,0.1,0.6,0.2c0.2,0.1,0.2,0.3,0.2,0.6c0,0.4-0.2,0.9-0.6,1.5  c-0.4,0.6-0.9,1.1-1.7,1.7c-0.7,0.5-1.6,1-2.7,1.4S413.4,683.7,412,683.7z M407.9,671.9h8.2v-0.1c0-1-0.2-1.8-0.5-2.6  c-0.3-0.7-0.8-1.3-1.4-1.7c-0.6-0.4-1.4-0.6-2.2-0.6c-0.9,0-1.6,0.2-2.2,0.6c-0.6,0.4-1.1,1-1.4,1.7c-0.3,0.7-0.5,1.6-0.5,2.6  V671.9z"></path>	<path class="st1" d="M430.5,683.7c-1.3,0-2.5-0.3-3.5-0.8c-1-0.5-1.9-1.2-2.5-2.1c-0.6-0.9-0.9-1.8-0.9-2.9c0-1.7,0.7-3.1,2.1-4.2  c1.4-1,3.3-1.7,5.6-2.1l5.1-0.7v-0.8c0-1-0.3-1.9-0.8-2.4c-0.5-0.6-1.4-0.9-2.7-0.9c-0.9,0-1.6,0.2-2.2,0.5c-0.6,0.4-1,0.8-1.2,1.4  c-0.2,0.3-0.5,0.5-0.9,0.5h-2.9c-0.3,0-0.5-0.1-0.6-0.2c-0.1-0.1-0.2-0.3-0.2-0.6c0-0.4,0.2-0.9,0.5-1.5c0.3-0.6,0.8-1.1,1.4-1.7  c0.6-0.5,1.5-1,2.5-1.4s2.2-0.6,3.7-0.6c1.6,0,2.9,0.2,4,0.6c1.1,0.4,1.9,0.9,2.6,1.5c0.6,0.6,1.1,1.4,1.4,2.3  c0.3,0.9,0.4,1.8,0.4,2.8v11.7c0,0.2-0.1,0.5-0.3,0.6c-0.2,0.2-0.4,0.3-0.6,0.3h-3c-0.3,0-0.5-0.1-0.7-0.3  c-0.2-0.2-0.2-0.4-0.2-0.6v-1.5c-0.3,0.4-0.8,0.9-1.3,1.3c-0.5,0.4-1.2,0.8-2,1S431.6,683.7,430.5,683.7z M431.8,680.1  c0.9,0,1.7-0.2,2.4-0.6c0.7-0.4,1.3-1,1.7-1.7c0.4-0.8,0.6-1.8,0.6-3v-0.8l-3.7,0.6c-1.5,0.2-2.6,0.6-3.3,1.1  c-0.7,0.5-1.1,1.1-1.1,1.8c0,0.5,0.2,1,0.5,1.4c0.3,0.4,0.8,0.7,1.3,0.9S431.2,680.1,431.8,680.1z"></path>	<path class="st1" d="M446.8,683.3c-0.2,0-0.5-0.1-0.6-0.3c-0.2-0.2-0.3-0.4-0.3-0.6v-24.7c0-0.2,0.1-0.5,0.3-0.6  c0.2-0.2,0.4-0.3,0.6-0.3h3.1c0.2,0,0.5,0.1,0.6,0.3c0.2,0.2,0.3,0.4,0.3,0.6v24.7c0,0.2-0.1,0.5-0.3,0.6c-0.2,0.2-0.4,0.3-0.6,0.3  H446.8z"></path>	<path class="st1" d="M469.6,683.3c-0.4,0-0.7-0.1-0.9-0.3s-0.3-0.4-0.5-0.7l-7-17.3c0-0.1-0.1-0.2-0.1-0.3c0-0.2,0.1-0.4,0.2-0.6  c0.2-0.2,0.4-0.2,0.6-0.2h3c0.3,0,0.5,0.1,0.7,0.2c0.1,0.2,0.2,0.3,0.3,0.5l5,13.1l5-13.1c0-0.1,0.1-0.3,0.3-0.5  c0.1-0.2,0.4-0.2,0.7-0.2h3.1c0.2,0,0.4,0.1,0.5,0.2c0.2,0.2,0.2,0.4,0.2,0.6c0,0.1,0,0.2,0,0.3l-7,17.3c-0.1,0.2-0.2,0.5-0.4,0.7  c-0.2,0.2-0.5,0.3-0.9,0.3H469.6z"></path>	<path class="st1" d="M488.7,683.7c-1.3,0-2.5-0.3-3.5-0.8c-1-0.5-1.9-1.2-2.5-2.1c-0.6-0.9-0.9-1.8-0.9-2.9c0-1.7,0.7-3.1,2.1-4.2  c1.4-1,3.3-1.7,5.6-2.1l5.1-0.7v-0.8c0-1-0.3-1.9-0.8-2.4c-0.5-0.6-1.4-0.9-2.7-0.9c-0.9,0-1.6,0.2-2.2,0.5c-0.6,0.4-1,0.8-1.2,1.4  c-0.2,0.3-0.5,0.5-0.9,0.5h-2.9c-0.3,0-0.5-0.1-0.6-0.2c-0.1-0.1-0.2-0.3-0.2-0.6c0-0.4,0.2-0.9,0.5-1.5c0.3-0.6,0.8-1.1,1.4-1.7  c0.6-0.5,1.5-1,2.5-1.4s2.2-0.6,3.7-0.6c1.6,0,2.9,0.2,4,0.6c1.1,0.4,1.9,0.9,2.6,1.5c0.6,0.6,1.1,1.4,1.4,2.3  c0.3,0.9,0.4,1.8,0.4,2.8v11.7c0,0.2-0.1,0.5-0.3,0.6c-0.2,0.2-0.4,0.3-0.6,0.3h-3c-0.3,0-0.5-0.1-0.7-0.3  c-0.2-0.2-0.2-0.4-0.2-0.6v-1.5c-0.3,0.4-0.8,0.9-1.3,1.3c-0.5,0.4-1.2,0.8-2,1S489.8,683.7,488.7,683.7z M490,680.1  c0.9,0,1.7-0.2,2.4-0.6c0.7-0.4,1.3-1,1.7-1.7c0.4-0.8,0.6-1.8,0.6-3v-0.8l-3.7,0.6c-1.5,0.2-2.6,0.6-3.3,1.1  c-0.7,0.5-1.1,1.1-1.1,1.8c0,0.5,0.2,1,0.5,1.4c0.3,0.4,0.8,0.7,1.3,0.9S489.4,680.1,490,680.1z"></path>	<path class="st1" d="M505,683.3c-0.2,0-0.5-0.1-0.6-0.3c-0.2-0.2-0.3-0.4-0.3-0.6v-24.7c0-0.2,0.1-0.5,0.3-0.6  c0.2-0.2,0.4-0.3,0.6-0.3h3.1c0.2,0,0.5,0.1,0.6,0.3c0.2,0.2,0.3,0.4,0.3,0.6v24.7c0,0.2-0.1,0.5-0.3,0.6c-0.2,0.2-0.4,0.3-0.6,0.3  H505z"></path>	<path class="st1" d="M520.9,683.7c-1.5,0-2.8-0.3-3.9-1c-1.1-0.7-2-1.7-2.6-2.9c-0.6-1.3-0.9-2.7-0.9-4.5v-10.5  c0-0.2,0.1-0.5,0.3-0.6c0.2-0.2,0.4-0.3,0.6-0.3h3.3c0.3,0,0.5,0.1,0.7,0.3c0.2,0.2,0.2,0.4,0.2,0.6V675c0,3.1,1.4,4.6,4.1,4.6  c1.3,0,2.3-0.4,3.1-1.2c0.8-0.8,1.1-2,1.1-3.4v-10.3c0-0.2,0.1-0.5,0.3-0.6c0.2-0.2,0.4-0.3,0.6-0.3h3.3c0.2,0,0.5,0.1,0.6,0.3  c0.2,0.2,0.3,0.4,0.3,0.6v17.6c0,0.2-0.1,0.5-0.3,0.6c-0.2,0.2-0.4,0.3-0.6,0.3h-3c-0.3,0-0.5-0.1-0.7-0.3  c-0.2-0.2-0.2-0.4-0.2-0.6v-1.5c-0.7,0.9-1.5,1.6-2.5,2.1C523.6,683.4,522.3,683.7,520.9,683.7z"></path>	<path class="st1" d="M544.9,683.7c-2.8,0-4.9-0.8-6.6-2.4c-1.6-1.6-2.5-3.9-2.6-6.8c0-0.2,0-0.6,0-1s0-0.7,0-0.9  c0.1-1.9,0.5-3.5,1.3-4.9c0.8-1.4,1.8-2.4,3.2-3.1c1.3-0.7,2.9-1.1,4.7-1.1c2,0,3.7,0.4,5.1,1.2c1.4,0.8,2.4,2,3.1,3.5  c0.7,1.5,1,3.2,1,5.1v0.8c0,0.2-0.1,0.5-0.3,0.6c-0.2,0.2-0.4,0.3-0.7,0.3h-12.4c0,0.1,0,0.2,0,0.3c0,0.9,0.2,1.7,0.5,2.4  c0.3,0.7,0.8,1.3,1.4,1.8c0.6,0.4,1.3,0.7,2.2,0.7c0.7,0,1.3-0.1,1.8-0.3c0.5-0.2,0.9-0.5,1.2-0.7c0.3-0.3,0.5-0.5,0.6-0.7  c0.2-0.3,0.4-0.5,0.5-0.5c0.1-0.1,0.3-0.1,0.6-0.1h3.2c0.2,0,0.5,0.1,0.6,0.2c0.2,0.1,0.2,0.3,0.2,0.6c0,0.4-0.2,0.9-0.6,1.5  c-0.4,0.6-0.9,1.1-1.7,1.7c-0.7,0.5-1.6,1-2.7,1.4S546.3,683.7,544.9,683.7z M540.8,671.9h8.2v-0.1c0-1-0.2-1.8-0.5-2.6  c-0.3-0.7-0.8-1.3-1.4-1.7c-0.6-0.4-1.4-0.6-2.2-0.6c-0.9,0-1.6,0.2-2.2,0.6c-0.6,0.4-1.1,1-1.4,1.7c-0.3,0.7-0.5,1.6-0.5,2.6  V671.9z"></path>	<path class="st1" d="M574,683.3c-1.5,0-2.7-0.3-3.8-0.8s-1.8-1.3-2.3-2.3c-0.5-1-0.7-2.3-0.7-3.9v-8.5h-2.9c-0.2,0-0.5-0.1-0.6-0.3  c-0.2-0.2-0.3-0.4-0.3-0.7v-2.1c0-0.2,0.1-0.5,0.3-0.6c0.2-0.2,0.4-0.3,0.6-0.3h2.9v-6.2c0-0.2,0.1-0.5,0.2-0.6s0.4-0.3,0.7-0.3h3  c0.2,0,0.5,0.1,0.6,0.3c0.2,0.2,0.3,0.4,0.3,0.6v6.2h4.7c0.2,0,0.5,0.1,0.6,0.3c0.2,0.2,0.3,0.4,0.3,0.6v2.1c0,0.3-0.1,0.5-0.3,0.7  c-0.2,0.2-0.4,0.3-0.6,0.3H572v8.1c0,1,0.2,1.8,0.5,2.4c0.4,0.6,1,0.9,1.9,0.9h2.6c0.2,0,0.5,0.1,0.6,0.3s0.3,0.4,0.3,0.6v2.3  c0,0.2-0.1,0.5-0.3,0.6s-0.4,0.3-0.6,0.3H574z"></path>	<path class="st1" d="M581.8,683.3c-0.2,0-0.5-0.1-0.6-0.3c-0.2-0.2-0.3-0.4-0.3-0.6v-17.6c0-0.3,0.1-0.5,0.3-0.7  c0.2-0.2,0.4-0.3,0.6-0.3h3c0.2,0,0.5,0.1,0.7,0.3c0.2,0.2,0.3,0.4,0.3,0.7v1.5c0.6-0.8,1.3-1.4,2.2-1.8c0.9-0.4,2-0.6,3.2-0.6h1.5  c0.3,0,0.5,0.1,0.7,0.3c0.2,0.2,0.2,0.4,0.2,0.6v2.7c0,0.2-0.1,0.5-0.2,0.6c-0.2,0.2-0.4,0.3-0.7,0.3h-2.9c-1.2,0-2.1,0.3-2.8,1  c-0.7,0.7-1,1.6-1,2.8v10.3c0,0.2-0.1,0.5-0.3,0.6s-0.4,0.3-0.7,0.3H581.8z"></path>	<path class="st1" d="M601.5,683.7c-1.3,0-2.5-0.3-3.5-0.8c-1-0.5-1.9-1.2-2.5-2.1c-0.6-0.9-0.9-1.8-0.9-2.9c0-1.7,0.7-3.1,2.1-4.2  c1.4-1,3.3-1.7,5.6-2.1l5.1-0.7v-0.8c0-1-0.3-1.9-0.8-2.4s-1.4-0.9-2.7-0.9c-0.9,0-1.6,0.2-2.2,0.5c-0.6,0.4-1,0.8-1.2,1.4  c-0.2,0.3-0.5,0.5-0.9,0.5h-2.9c-0.3,0-0.5-0.1-0.6-0.2c-0.1-0.1-0.2-0.3-0.2-0.6c0-0.4,0.2-0.9,0.5-1.5c0.3-0.6,0.8-1.1,1.4-1.7  c0.6-0.5,1.5-1,2.5-1.4s2.2-0.6,3.7-0.6c1.6,0,2.9,0.2,4,0.6c1.1,0.4,1.9,0.9,2.6,1.5c0.6,0.6,1.1,1.4,1.4,2.3  c0.3,0.9,0.4,1.8,0.4,2.8v11.7c0,0.2-0.1,0.5-0.3,0.6c-0.2,0.2-0.4,0.3-0.6,0.3h-3c-0.3,0-0.5-0.1-0.7-0.3s-0.2-0.4-0.2-0.6v-1.5  c-0.3,0.4-0.8,0.9-1.3,1.3c-0.5,0.4-1.2,0.8-2,1S602.6,683.7,601.5,683.7z M602.8,680.1c0.9,0,1.7-0.2,2.4-0.6  c0.7-0.4,1.3-1,1.7-1.7c0.4-0.8,0.6-1.8,0.6-3v-0.8l-3.7,0.6c-1.5,0.2-2.6,0.6-3.3,1.1c-0.7,0.5-1.1,1.1-1.1,1.8  c0,0.5,0.2,1,0.5,1.4c0.3,0.4,0.8,0.7,1.3,0.9C601.7,680,602.2,680.1,602.8,680.1z"></path>	<path class="st1" d="M623.3,683.3c-0.4,0-0.7-0.1-0.9-0.3s-0.3-0.4-0.5-0.7l-7-17.3c-0.1-0.1-0.1-0.2-0.1-0.3  c0-0.2,0.1-0.4,0.2-0.6c0.2-0.2,0.4-0.2,0.6-0.2h3c0.3,0,0.5,0.1,0.7,0.2c0.1,0.2,0.2,0.3,0.3,0.5l5,13.1l5-13.1  c0-0.1,0.1-0.3,0.3-0.5c0.1-0.2,0.4-0.2,0.7-0.2h3.1c0.2,0,0.4,0.1,0.5,0.2c0.2,0.2,0.2,0.4,0.2,0.6c0,0.1,0,0.2,0,0.3l-7,17.3  c-0.1,0.2-0.2,0.5-0.4,0.7s-0.5,0.3-0.9,0.3H623.3z"></path>	<path class="st1" d="M645.2,683.7c-2.8,0-4.9-0.8-6.6-2.4c-1.6-1.6-2.5-3.9-2.6-6.8c0-0.2,0-0.6,0-1s0-0.7,0-0.9  c0.1-1.9,0.5-3.5,1.3-4.9c0.8-1.4,1.8-2.4,3.2-3.1c1.3-0.7,2.9-1.1,4.7-1.1c2,0,3.7,0.4,5.1,1.2c1.4,0.8,2.4,2,3.1,3.5  c0.7,1.5,1,3.2,1,5.1v0.8c0,0.2-0.1,0.5-0.3,0.6c-0.2,0.2-0.4,0.3-0.7,0.3h-12.4c0,0.1,0,0.2,0,0.3c0,0.9,0.2,1.7,0.5,2.4  s0.8,1.3,1.4,1.8c0.6,0.4,1.3,0.7,2.2,0.7c0.7,0,1.3-0.1,1.8-0.3s0.9-0.5,1.2-0.7c0.3-0.3,0.5-0.5,0.6-0.7c0.2-0.3,0.4-0.5,0.5-0.5  c0.1-0.1,0.3-0.1,0.6-0.1h3.2c0.2,0,0.5,0.1,0.6,0.2c0.2,0.1,0.2,0.3,0.2,0.6c0,0.4-0.2,0.9-0.6,1.5c-0.4,0.6-0.9,1.1-1.7,1.7  c-0.7,0.5-1.6,1-2.7,1.4C647.8,683.5,646.6,683.7,645.2,683.7z M641.1,671.9h8.2v-0.1c0-1-0.2-1.8-0.5-2.6  c-0.3-0.7-0.8-1.3-1.4-1.7c-0.6-0.4-1.4-0.6-2.2-0.6c-0.9,0-1.6,0.2-2.2,0.6s-1.1,1-1.4,1.7s-0.5,1.6-0.5,2.6V671.9z"></path>	<path class="st1" d="M659,683.3c-0.2,0-0.5-0.1-0.6-0.3s-0.3-0.4-0.3-0.6v-24.7c0-0.2,0.1-0.5,0.3-0.6s0.4-0.3,0.6-0.3h3.1  c0.2,0,0.5,0.1,0.6,0.3s0.3,0.4,0.3,0.6v24.7c0,0.2-0.1,0.5-0.3,0.6s-0.4,0.3-0.6,0.3H659z"></path>	<path class="st1" d="M676.8,683.3c-0.2,0-0.5-0.1-0.6-0.3s-0.3-0.4-0.3-0.6v-17.6c0-0.3,0.1-0.5,0.3-0.7c0.2-0.2,0.4-0.3,0.6-0.3h3  c0.2,0,0.5,0.1,0.7,0.3c0.2,0.2,0.3,0.4,0.3,0.7v1.5c0.6-0.8,1.3-1.4,2.2-1.8c0.9-0.4,2-0.6,3.2-0.6h1.5c0.3,0,0.5,0.1,0.7,0.3  c0.2,0.2,0.2,0.4,0.2,0.6v2.7c0,0.2-0.1,0.5-0.2,0.6c-0.2,0.2-0.4,0.3-0.7,0.3h-2.9c-1.2,0-2.1,0.3-2.8,1c-0.7,0.7-1,1.6-1,2.8  v10.3c0,0.2-0.1,0.5-0.3,0.6s-0.4,0.3-0.7,0.3H676.8z"></path>	<path class="st1" d="M699.2,683.7c-2.8,0-4.9-0.8-6.6-2.4c-1.6-1.6-2.5-3.9-2.6-6.8c0-0.2,0-0.6,0-1s0-0.7,0-0.9  c0.1-1.9,0.5-3.5,1.3-4.9c0.8-1.4,1.8-2.4,3.2-3.1c1.3-0.7,2.9-1.1,4.7-1.1c2,0,3.7,0.4,5.1,1.2c1.4,0.8,2.4,2,3.1,3.5  c0.7,1.5,1,3.2,1,5.1v0.8c0,0.2-0.1,0.5-0.3,0.6s-0.4,0.3-0.7,0.3h-12.4c0,0.1,0,0.2,0,0.3c0,0.9,0.2,1.7,0.5,2.4  c0.3,0.7,0.8,1.3,1.4,1.8s1.3,0.7,2.2,0.7c0.7,0,1.3-0.1,1.8-0.3c0.5-0.2,0.9-0.5,1.2-0.7c0.3-0.3,0.5-0.5,0.6-0.7  c0.2-0.3,0.4-0.5,0.5-0.5c0.1-0.1,0.3-0.1,0.6-0.1h3.2c0.2,0,0.5,0.1,0.6,0.2c0.2,0.1,0.2,0.3,0.2,0.6c0,0.4-0.2,0.9-0.6,1.5  c-0.4,0.6-0.9,1.1-1.7,1.7c-0.7,0.5-1.6,1-2.7,1.4C701.9,683.5,700.6,683.7,699.2,683.7z M695.1,671.9h8.2v-0.1  c0-1-0.2-1.8-0.5-2.6s-0.8-1.3-1.4-1.7s-1.4-0.6-2.2-0.6c-0.9,0-1.6,0.2-2.2,0.6c-0.6,0.4-1.1,1-1.4,1.7c-0.3,0.7-0.5,1.6-0.5,2.6  V671.9z"></path>	<path class="st1" d="M720.8,683.3c-1.5,0-2.7-0.3-3.8-0.8s-1.8-1.3-2.3-2.3c-0.5-1-0.7-2.3-0.7-3.9v-8.5h-2.9  c-0.2,0-0.5-0.1-0.6-0.3c-0.2-0.2-0.3-0.4-0.3-0.7v-2.1c0-0.2,0.1-0.5,0.3-0.6c0.2-0.2,0.4-0.3,0.6-0.3h2.9v-6.2  c0-0.2,0.1-0.5,0.2-0.6s0.4-0.3,0.7-0.3h3c0.2,0,0.5,0.1,0.6,0.3s0.3,0.4,0.3,0.6v6.2h4.7c0.2,0,0.5,0.1,0.6,0.3  c0.2,0.2,0.3,0.4,0.3,0.6v2.1c0,0.3-0.1,0.5-0.3,0.7s-0.4,0.3-0.6,0.3h-4.7v8.1c0,1,0.2,1.8,0.5,2.4c0.4,0.6,1,0.9,1.9,0.9h2.6  c0.2,0,0.5,0.1,0.6,0.3s0.3,0.4,0.3,0.6v2.3c0,0.2-0.1,0.5-0.3,0.6s-0.4,0.3-0.6,0.3H720.8z"></path>	<path class="st1" d="M733.4,683.7c-1.3,0-2.5-0.3-3.5-0.8c-1-0.5-1.9-1.2-2.5-2.1c-0.6-0.9-0.9-1.8-0.9-2.9c0-1.7,0.7-3.1,2.1-4.2  c1.4-1,3.3-1.7,5.6-2.1l5.1-0.7v-0.8c0-1-0.3-1.9-0.8-2.4s-1.4-0.9-2.7-0.9c-0.9,0-1.6,0.2-2.2,0.5c-0.6,0.4-1,0.8-1.2,1.4  c-0.2,0.3-0.5,0.5-0.9,0.5h-2.9c-0.3,0-0.5-0.1-0.6-0.2c-0.1-0.1-0.2-0.3-0.2-0.6c0-0.4,0.2-0.9,0.5-1.5c0.3-0.6,0.8-1.1,1.4-1.7  c0.6-0.5,1.5-1,2.5-1.4s2.2-0.6,3.7-0.6c1.6,0,2.9,0.2,4,0.6c1.1,0.4,1.9,0.9,2.6,1.5s1.1,1.4,1.4,2.3c0.3,0.9,0.4,1.8,0.4,2.8  v11.7c0,0.2-0.1,0.5-0.3,0.6s-0.4,0.3-0.6,0.3h-3c-0.3,0-0.5-0.1-0.7-0.3c-0.2-0.2-0.2-0.4-0.2-0.6v-1.5c-0.3,0.4-0.8,0.9-1.3,1.3  s-1.2,0.8-2,1S734.4,683.7,733.4,683.7z M734.6,680.1c0.9,0,1.7-0.2,2.4-0.6s1.3-1,1.7-1.7s0.6-1.8,0.6-3v-0.8l-3.7,0.6  c-1.5,0.2-2.6,0.6-3.3,1.1c-0.7,0.5-1.1,1.1-1.1,1.8c0,0.5,0.2,1,0.5,1.4c0.3,0.4,0.8,0.7,1.3,0.9C733.5,680,734,680.1,734.6,680.1  z"></path>	<path class="st1" d="M749.5,660.7c-0.2,0-0.5-0.1-0.6-0.3c-0.2-0.2-0.3-0.4-0.3-0.6v-2.7c0-0.2,0.1-0.5,0.3-0.6  c0.2-0.2,0.4-0.3,0.6-0.3h3.4c0.3,0,0.5,0.1,0.7,0.3c0.2,0.2,0.3,0.4,0.3,0.6v2.7c0,0.2-0.1,0.5-0.3,0.6c-0.2,0.2-0.4,0.3-0.7,0.3  H749.5z M749.6,683.3c-0.2,0-0.5-0.1-0.6-0.3c-0.2-0.2-0.3-0.4-0.3-0.6v-17.6c0-0.2,0.1-0.5,0.3-0.6c0.2-0.2,0.4-0.3,0.6-0.3h3.1  c0.3,0,0.5,0.1,0.7,0.3c0.2,0.2,0.2,0.4,0.2,0.6v17.6c0,0.2-0.1,0.5-0.2,0.6c-0.2,0.2-0.4,0.3-0.7,0.3H749.6z"></path>	<path class="st1" d="M759.2,683.3c-0.2,0-0.5-0.1-0.6-0.3s-0.3-0.4-0.3-0.6v-24.7c0-0.2,0.1-0.5,0.3-0.6s0.4-0.3,0.6-0.3h3.1  c0.2,0,0.5,0.1,0.6,0.3s0.3,0.4,0.3,0.6v24.7c0,0.2-0.1,0.5-0.3,0.6s-0.4,0.3-0.6,0.3H759.2z"></path></g><g>	<path class="st1" d="M393.6,511.4c-1.2,0-2.1-0.4-2.8-1.1c-0.7-0.7-1-1.6-1-2.7V401.5c0-1.2,0.3-2.1,1-2.8c0.7-0.7,1.6-1.1,2.8-1.1  h36.9c11.2,0,20.2,1.7,27,5c6.8,3.4,11.8,8.3,15,14.9c3.1,6.6,4.8,14.6,4.9,24.1c0.1,4.9,0.2,9.2,0.2,12.8c0,3.7-0.1,7.9-0.2,12.7  c-0.2,10-1.9,18.2-5,24.8c-3.1,6.6-8,11.4-14.6,14.6c-6.7,3.2-15.5,4.8-26.4,4.8H393.6z M405.8,497.6h24.7c7.5,0,13.4-1,17.9-3.1  c4.4-2.1,7.7-5.4,9.7-9.9c2-4.6,3.1-10.6,3.2-18c0.2-3.3,0.3-6.1,0.3-8.5s0-4.9,0-7.3s-0.1-5.2-0.3-8.4  c-0.2-10.5-2.7-18.3-7.5-23.3c-4.8-5-12.8-7.6-24.1-7.6h-23.9V497.6z"></path>	<path class="st1" d="M530.2,513.1c-9.1,0-16.9-1.6-23.5-4.9c-6.6-3.3-11.6-8.2-15.1-14.9c-3.5-6.7-5.3-15.3-5.3-25.8v-66  c0-1.2,0.3-2.1,1-2.8c0.7-0.7,1.6-1.1,2.8-1.1h8.3c1.2,0,2.1,0.4,2.8,1.1c0.7,0.7,1.1,1.7,1.1,2.8v66.3c0,10.6,2.5,18.5,7.5,23.6  c5,5.1,11.8,7.6,20.5,7.6c8.6,0,15.4-2.5,20.4-7.6c5-5.1,7.6-13,7.6-23.6v-66.3c0-1.2,0.4-2.1,1.1-2.8c0.7-0.7,1.6-1.1,2.7-1.1h8.5  c1.1,0,2,0.4,2.7,1.1c0.7,0.7,1.1,1.7,1.1,2.8v66c0,10.5-1.8,19.1-5.3,25.8c-3.5,6.7-8.5,11.6-15,14.9S539.4,513.1,530.2,513.1z"></path>	<path class="st1" d="M615.3,511.4c-1.1,0-2-0.4-2.7-1.1c-0.7-0.7-1.1-1.6-1.1-2.7v-95.6h-31.2c-1.1,0-2-0.4-2.7-1.1  c-0.7-0.7-1.1-1.6-1.1-2.7v-6.8c0-1.2,0.4-2.1,1.1-2.8c0.7-0.7,1.6-1.1,2.7-1.1h78.4c1.2,0,2.1,0.4,2.8,1.1  c0.7,0.7,1.1,1.7,1.1,2.8v6.8c0,1.1-0.4,2-1.1,2.7c-0.7,0.7-1.7,1.1-2.8,1.1h-31.1v95.6c0,1.1-0.4,2-1.1,2.7  c-0.7,0.7-1.7,1.1-2.8,1.1H615.3z"></path>	<path class="st1" d="M712.3,511.4c-1.1,0-2-0.4-2.7-1.1c-0.7-0.7-1.1-1.6-1.1-2.7v-38.4L669.4,403c-0.1-0.3-0.2-0.7-0.3-1  c-0.1-0.3-0.2-0.7-0.2-1.1c0-0.9,0.3-1.6,1-2.3s1.4-1,2.3-1h8.5c1,0,1.8,0.2,2.6,0.7c0.8,0.5,1.3,1.2,1.6,2l31.7,52.7l31.7-52.7  c0.5-0.9,1.2-1.5,1.9-2c0.7-0.5,1.5-0.7,2.5-0.7h8.3c1,0,1.8,0.3,2.4,1s1,1.4,1,2.3c0,0.4-0.1,0.8-0.2,1.1c-0.1,0.3-0.3,0.7-0.5,1  l-39,66.3v38.4c0,1.1-0.4,2-1.1,2.7c-0.7,0.7-1.7,1.1-2.8,1.1H712.3z"></path></g><g>	<path class="st1" d="M394.2,638.1c-1.1,0-2.1-0.4-2.9-1.2c-0.8-0.8-1.2-1.7-1.2-2.9V524.9c0-1.2,0.4-2.2,1.2-3  c0.8-0.8,1.7-1.2,2.9-1.2h72.8c1.2,0,2.2,0.4,3,1.2c0.8,0.8,1.2,1.8,1.2,3v11.7c0,1.2-0.4,2.2-1.2,2.9c-0.8,0.7-1.8,1.1-3,1.1  h-53.8v31.9h50.5c1.2,0,2.2,0.4,3,1.2c0.8,0.8,1.2,1.8,1.2,3v11.7c0,1.1-0.4,2.1-1.2,2.9c-0.8,0.8-1.8,1.2-3,1.2h-50.5V634  c0,1.1-0.4,2.1-1.2,2.9c-0.8,0.8-1.8,1.2-3,1.2H394.2z"></path>	<path class="st1" d="M486,638.1c-1.1,0-2.1-0.4-2.9-1.2c-0.8-0.8-1.2-1.7-1.2-2.9V524.9c0-1.2,0.4-2.2,1.2-3  c0.8-0.8,1.7-1.2,2.9-1.2h43.4c13.5,0,24.2,3.1,32,9.4c7.8,6.3,11.7,15.4,11.7,27.3c0,8.3-2,15.1-6.1,20.6  c-4.1,5.5-9.5,9.4-16.3,11.9l24.5,42.8c0.3,0.7,0.5,1.3,0.5,1.8c0,1-0.4,1.8-1.1,2.5c-0.7,0.7-1.5,1-2.4,1H557  c-1.9,0-3.4-0.5-4.4-1.5s-1.8-2-2.3-3l-21.6-39.7h-23.3V634c0,1.1-0.4,2.1-1.1,2.9c-0.7,0.8-1.7,1.2-2.9,1.2H486z M505.3,574.9H529  c6.8,0,11.9-1.5,15.3-4.6c3.4-3.1,5-7.4,5-13c0-5.6-1.7-10-4.9-13.2c-3.3-3.2-8.4-4.8-15.3-4.8h-23.6V574.9z"></path>	<path class="st1" d="M590,638.1c-1.1,0-2.1-0.4-2.9-1.2c-0.8-0.8-1.2-1.7-1.2-2.9V524.9c0-1.2,0.4-2.2,1.2-3  c0.8-0.8,1.7-1.2,2.9-1.2h73.8c1.2,0,2.2,0.4,3,1.2c0.8,0.8,1.2,1.8,1.2,3V536c0,1.1-0.4,2.1-1.2,2.9c-0.8,0.8-1.8,1.2-3,1.2h-55.2  v29.7h51.5c1.2,0,2.2,0.4,3,1.1c0.8,0.7,1.2,1.7,1.2,2.9v10.4c0,1.2-0.4,2.2-1.2,2.9c-0.8,0.7-1.8,1.1-3,1.1h-51.5v30.7h56.5  c1.2,0,2.2,0.4,3,1.2c0.8,0.8,1.2,1.8,1.2,3V634c0,1.1-0.4,2.1-1.2,2.9c-0.8,0.8-1.8,1.2-3,1.2H590z"></path>	<path class="st1" d="M685.4,638.1c-1.1,0-2.1-0.4-2.9-1.2c-0.8-0.8-1.2-1.7-1.2-2.9V524.9c0-1.2,0.4-2.2,1.2-3  c0.8-0.8,1.7-1.2,2.9-1.2h73.8c1.2,0,2.2,0.4,3,1.2c0.8,0.8,1.2,1.8,1.2,3V536c0,1.1-0.4,2.1-1.2,2.9c-0.8,0.8-1.8,1.2-3,1.2H704  v29.7h51.5c1.2,0,2.2,0.4,3,1.1c0.8,0.7,1.2,1.7,1.2,2.9v10.4c0,1.2-0.4,2.2-1.2,2.9c-0.8,0.7-1.8,1.1-3,1.1H704v30.7h56.5  c1.2,0,2.2,0.4,3,1.2c0.8,0.8,1.2,1.8,1.2,3V634c0,1.1-0.4,2.1-1.2,2.9c-0.8,0.8-1.8,1.2-3,1.2H685.4z"></path></g></svg>