<svg xmlns="http://www.w3.org/2000/svg" id="Laag_1" viewBox="0 0 56.69 56.69"><defs><style>.cls-1{fill:#fff;}</style></defs><path class="cls-1" d="M8.96,30.1l19.25,20.4,19.25-20.4c4.25-6.24,2.03-12.58-2.37-15.64-4.36-3.03-10.95-2.94-15.86,4.08l-1.02,1.46-1.02-1.46c-4.9-7.02-11.5-7.11-15.86-4.08-4.4,3.06-6.62,9.4-2.37,15.64M28.21,54.13L6.96,31.59c-5.24-7.61-2.48-15.4,2.95-19.17,4.91-3.4,12.53-3.66,18.3,3.36,5.76-7.01,13.39-6.76,18.3-3.36,5.43,3.77,8.19,11.57,2.95,19.17l-.12.15-21.13,22.39Z"></path></svg>